<?xml version="1.0" encoding="utf-8"?>
<!-- Generator: Adobe Illustrator 25.2.3, SVG Export Plug-In . SVG Version: 6.00 Build 0)  -->
<svg version="1.1" id="Layer_1" xmlns="http://www.w3.org/2000/svg" xmlns:xlink="http://www.w3.org/1999/xlink" x="0px" y="0px"
	 viewBox="0 0 305.49 50.66" style="enable-background:new 0 0 305.49 50.66;" xml:space="preserve">
<style type="text/css">
	.st0{fill:#83DEB2;}
</style>
<g>
	<g>
		<path class="st0" d="M102.92,9.61h-3.46c-0.78,0-1.48,0.45-1.81,1.15l-8.02,16.96c-0.1,0.21-0.39,0.21-0.49,0L81.1,10.76
			c-0.33-0.7-1.04-1.15-1.81-1.15H75.4c-0.81,0-1.48,0.66-1.48,1.48v26.11c0,0.89,0.72,1.61,1.61,1.61h1.44
			c0.89,0,1.61-0.72,1.61-1.61V19.71l8.32,18.08c0.6,1.3,2.45,1.3,3.05,0l8.46-18.34v17.75c0,0.89,0.72,1.61,1.61,1.61h2.76
			c0.89,0,1.61-0.72,1.61-1.61V11.08C104.39,10.27,103.73,9.61,102.92,9.61z"/>
		<path class="st0" d="M156.93,18.1h-3.7v-4.17c0-0.99-1.17-1.51-1.91-0.85l-7.42,6.69c-0.21,0.18-0.32,0.45-0.32,0.72v0.2
			c0,0.54,0.44,0.98,0.98,0.98h2.7v12.76c0,3.09,1.53,4.81,4.99,4.81h4.74c0.6,0,1.09-0.49,1.09-1.09v-1.48
			c0-0.6-0.49-1.09-1.09-1.09h-1.88c-1.47,0-1.87-0.62-1.87-1.75V21.67h3.7c0.63,0,1.14-0.51,1.14-1.14v-1.28
			C158.08,18.61,157.56,18.1,156.93,18.1z"/>
		<path class="st0" d="M8.34,3.16c-2.86,0-5.17,2.32-5.17,5.17v30.65c0,2.86,2.32,5.17,5.17,5.17c2.86,0,5.17-2.32,5.17-5.17V8.33
			C13.51,5.48,11.19,3.16,8.34,3.16z"/>
		<path class="st0" d="M23.95,15.06c-2.86,0-5.17,2.32-5.17,5.17v18.75c0,2.86,2.32,5.17,5.17,5.17c2.86,0,5.17-2.32,5.17-5.17
			V20.23C29.12,17.38,26.81,15.06,23.95,15.06z"/>
		<path class="st0" d="M39.57,3.01c-2.86,0-5.17,2.32-5.17,5.17v16.96c0,2.86,2.32,5.17,5.17,5.17c2.86,0,5.17-2.32,5.17-5.17V8.18
			C44.74,5.32,42.42,3.01,39.57,3.01z"/>
		<circle class="st0" cx="39.57" cy="38.83" r="5.17"/>
		<path class="st0" d="M114.8,18.07h-2.53c-0.95,0-1.73,0.77-1.73,1.73v17.28c0,0.95,0.77,1.73,1.73,1.73h2.53
			c0.95,0,1.73-0.77,1.73-1.73V19.79C116.53,18.84,115.76,18.07,114.8,18.07z"/>
		<circle class="st0" cx="113.54" cy="11.9" r="3.46"/>
		<path class="st0" d="M134.58,17.47c-2.67,0-5.1,1.76-6.5,3.73v-1.53c0-0.88-0.72-1.6-1.6-1.6h-2.78c-0.88,0-1.6,0.72-1.6,1.6V37.2
			c0,0.88,0.72,1.6,1.6,1.6h2.78c0.88,0,1.6-0.72,1.6-1.6V24.23c0.72-1.15,2.04-2.38,3.83-2.38c2.03,0,3.2,1.45,3.2,3.33V37.2
			c0,0.88,0.72,1.6,1.6,1.6h2.78c0.88,0,1.6-0.72,1.6-1.6V24.69C141.09,20.44,138.56,17.47,134.58,17.47z"/>
	</g>
	<g>
		<g>
			<path class="st0" d="M251.31,18.07h-2.53c-0.95,0-1.73,0.77-1.73,1.73v17.28c0,0.95,0.77,1.73,1.73,1.73h2.53
				c0.95,0,1.73-0.77,1.73-1.73V19.79C253.04,18.84,252.27,18.07,251.31,18.07z"/>
			<path class="st0" d="M180.26,9.61h-6.2c-0.92,0-1.67,0.75-1.67,1.67l0.01,25.85c0,0.92,0.75,1.67,1.67,1.67h8.06
				c10.21,0,15.54-6.5,15.54-13.98C197.66,14.98,190.66,9.61,180.26,9.61z M181.12,34.84h-2.74V13.35h1.83
				c7.24,0,10.98,3.96,10.98,10.87C191.19,31.56,187.39,34.84,181.12,34.84z"/>
			<path class="st0" d="M211.37,17.44c-5.97,0-10.7,4.37-10.7,10.92c0,7.3,5.43,10.88,11.08,10.88c5.25,0,8.19-3.42,9.2-5.79
				c0.28-0.67-0.2-1.41-0.92-1.41l-2.22,0c-0.44,0-0.84,0.23-1.08,0.6c-0.71,1.07-2.27,2.06-4.29,2.06c-3.73,0-5.97-2.73-6.1-5.45
				h13.5c0.78,0,1.34-0.53,1.42-1.25C221.81,23.32,218.68,17.44,211.37,17.44z M215.43,25.9L215.43,25.9h-8.97
				c0.26-2.61,2.02-4.9,4.78-4.9C214.25,21,215.82,23.73,215.43,25.9"/>
			<path class="st0" d="M236.84,26.13c-1.46-0.39-2.63-0.71-3.97-1.09c-2.29-0.66-2.74-1.27-2.74-2.02c0-1.06,1.21-1.86,3.34-1.86
				c2.06,0,3.49,1.06,4.02,2.46c0.16,0.42,0.54,0.71,0.99,0.71l2.98,0c0.65,0,1.14-0.62,0.97-1.25c-0.98-3.43-4.32-5.51-8.97-5.51
				c-5.08,0-8.69,2.56-8.69,6.39c0,3.13,1.82,4.91,5.41,6.06c0,0,1.03,0.31,3.62,1.1c2.59,0.78,3.6,1.25,3.6,2.42
				c0,1.27-1.69,1.82-3.65,1.82c-2.54,0-4.09-1.08-4.65-2.65c-0.14-0.41-0.54-0.67-0.97-0.67h-2.52c-0.68,0-1.19,0.63-1.02,1.29
				c0.92,3.58,4.35,5.91,9.65,5.91c5.56,0,8.99-2.77,8.99-6.71C243.21,29.34,241.45,27.36,236.84,26.13z"/>
			<path class="st0" d="M296.66,17.47c-2.67,0-5.1,1.76-6.5,3.73v-1.53c0-0.88-0.72-1.6-1.6-1.6h-2.78c-0.88,0-1.6,0.72-1.6,1.6
				V37.2c0,0.88,0.72,1.6,1.6,1.6h2.78c0.88,0,1.6-0.72,1.6-1.6V24.23c0.72-1.15,2.04-2.38,3.83-2.38c2.02,0,3.2,1.45,3.2,3.33V37.2
				c0,0.88,0.72,1.6,1.6,1.6h2.78c0.88,0,1.6-0.72,1.6-1.6V24.69C303.17,20.44,300.64,17.47,296.66,17.47z"/>
			<circle class="st0" cx="250.05" cy="11.91" r="3.46"/>
		</g>
		<path class="st0" d="M277.01,18.07h-2.42c-0.88,0-1.6,0.72-1.6,1.6v1.55c-1.16-2.33-3.17-3.77-6.27-3.77
			c-5.77,0-9.49,4.46-9.49,10.41c0,6.11,3.52,10.78,9.4,10.78c2.86,0,4.8-1.24,6-3.26v1.83v2.28c0,2.19-1.51,4.19-4.79,4.19
			c-3,0-4.23-1.73-4.69-2.75c-0.2-0.45-0.67-0.73-1.16-0.73l-3.06,0c-0.94,0-1.63,0.91-1.35,1.81c0.97,3.13,3.9,6.38,10.38,6.38
			c7.53,0,10.64-5.44,10.64-9.14V24.23V21.2v-1.53C278.61,18.78,277.89,18.07,277.01,18.07z M268.49,34.8
			c-3.09,0-5.19-3.18-5.19-7.59c0-3.54,2.01-6.32,4.57-6.32c2.76,0,5.1,2.9,5.1,7.43C272.97,32.05,271.13,34.8,268.49,34.8z"/>
	</g>
</g>
</svg>
