<?xml version="1.0" encoding="utf-8"?>
<!-- Generator: Adobe Illustrator 25.4.1, SVG Export Plug-In . SVG Version: 6.00 Build 0)  -->
<svg version="1.1" id="Layer_1" xmlns="http://www.w3.org/2000/svg" xmlns:xlink="http://www.w3.org/1999/xlink" x="0px" y="0px"
	 width="200px" height="200px" viewBox="0 0 200 200" style="enable-background:new 0 0 200 200;" xml:space="preserve">
<style type="text/css">
	.st0{fill:#C6F7EA;}
</style>
<g>
	<path class="st0" d="M90.5,182.4l4.1-9.3l1.1,0.1l2.8,12.9l-1.7-0.1l-2-9.9l-4.1,9.3l-1.3-0.1l-1.9-9.9l-4.2,9.3l-1.7-0.1l5.6-12
		l1.1,0.1L90.5,182.4z"/>
	<path class="st0" d="M73.1,176.9l2.3-7.8l1.5,0.4l-0.4,1.4c0.8-0.8,2-1,3.2-0.8c2.4,0.6,3.4,3.1,2.8,5.2c-0.6,2.2-2.8,3.6-5.2,2.9
		c-1.1-0.4-2-1.3-2.3-2.3l-0.4,1.3L73.1,176.9z M75.8,173.5c-0.4,1.5,0.3,3.1,1.8,3.6s2.9-0.5,3.4-2c0.4-1.5-0.3-3.1-1.8-3.4
		C77.6,171.1,76.2,172,75.8,173.5z"/>
	<path class="st0" d="M69.1,166.5c0.3,0.1,0.9,0.3,1.3,0.4c0.9,0.4,2.3,1.1,1.3,3.6l-1.5,3.7l1.4,0.6l-0.5,1.1l-1.4-0.6l-1,2.5
		l-1.4-0.6l1-2.6l-1.9-0.8l0.5-1.1l1.9,0.8l1.4-3.4c0.6-1.4,0.1-1.8-0.5-2.2c-0.3-0.1-0.8-0.3-1-0.4L69.1,166.5z"/>
	<path class="st0" d="M60.1,167.7c-0.4,0.9-0.3,1.9,1.1,2.7c1.5,0.8,2.8,0,3.6-1.3c0.8-1.4,0.6-2.9-0.9-3.7c-1.1-0.6-2-0.4-2.7,0.4
		l-1.4-0.8c1-1.4,2.7-1.9,4.8-0.8c2.3,1.3,2.5,3.7,1.5,5.6c-1,1.9-3.3,3.1-5.6,1.8c-2.3-1.3-2.4-3.2-1.9-4.6L60.1,167.7z"/>
	<path class="st0" d="M52.4,171.4l-1.3-0.9l3.4-4.7c-1,0.5-2.2,0.5-3.3-0.4c-0.9-0.6-1.4-1.4-1.3-2.3c0-0.8,0.3-1.4,0.9-2.4l2.8-3.8
		l1.3,0.9l-2.5,3.4c-0.9,1.3-1.1,2.4,0.1,3.3s2.7,0.3,3.4-0.9l2.4-3.3l1.3,0.9L52.4,171.4z"/>
	<path class="st0" d="M42.7,157.9l-1-1.1l1-1c-1,0.3-2.2,0-3.2-1c-0.8-0.8-1-1.7-0.9-2.5s0.5-1.4,1.4-2.2l3.4-3.3l1,1.1l-3.2,2.9
		c-1.1,1-1.5,2.2-0.5,3.3s2.5,0.8,3.6-0.3l3.1-2.8l1,1.1L42.7,157.9z"/>
	<path class="st0" d="M39.1,148c-1.9,1.3-4.5,1.1-6-1c-1.5-2.2-0.9-4.6,1-6c1.9-1.3,4.5-1.1,6,1C41.5,144.2,40.9,146.7,39.1,148z
		 M35,142.4c-1.3,0.9-1.8,2.5-0.8,4c0.9,1.4,2.7,1.4,4,0.5s1.7-2.5,0.8-3.8C38,141.6,36.3,141.5,35,142.4z"/>
	<path class="st0" d="M28.5,135.6l6.8-0.9l0.5,1l-5.9,6.5l-0.8-1.5l4.2-4.3l-6,0.8l-0.6-1.4l4.2-4.3l-6,0.8l-0.8-1.5l8.7-0.9l0.5,1
		L28.5,135.6z"/>
	<path class="st0" d="M18.5,116.6l10.1,1l0.3,1.1l-11.3,6.8l-0.4-1.7l8.8-5l-10.1-1l-0.3-1.1l8.9-5l-10.1-1.1l-0.4-1.8l13.1,1.7
		l0.3,1.1L18.5,116.6z"/>
	<path class="st0" d="M18.2,98.5l8.2-0.3v1.5H25c1,0.5,1.7,1.7,1.7,2.8c0.1,2.4-1.8,4.2-4.1,4.3c-2.3,0.1-4.3-1.5-4.3-4.1
		c0-1.1,0.5-2.3,1.5-2.9h-1.4L18.2,98.5z M22.4,99.9c-1.5,0-2.8,1.1-2.8,2.8c0,1.7,1.4,2.7,2.9,2.7s2.8-1.1,2.8-2.8
		C25.2,100.8,23.9,99.8,22.4,99.9z"/>
	<path class="st0" d="M26.9,91.3c0,0.3,0,0.9,0,1.4c-0.1,1-0.4,2.5-3.1,2.3l-4.1-0.3l-0.1,1.5l-1.3-0.1l0.1-1.5l-2.7-0.3l0.1-1.5
		l2.7,0.3l0.1-2l1.3,0.1l-0.1,2l3.7,0.3c1.7,0.1,1.9-0.4,1.9-1.3c0-0.4,0-0.8,0-1L26.9,91.3z"/>
	<path class="st0" d="M22.9,83.2c-1,0-1.9,0.4-2.2,1.9c-0.3,1.7,0.9,2.7,2.4,2.9c1.5,0.3,2.9-0.3,3.3-2c0.3-1.3-0.3-2-1.1-2.4
		l0.3-1.5c1.7,0.5,2.7,2,2.3,4.3c-0.5,2.5-2.8,3.6-5,3.2s-4-2.2-3.4-4.7c0.5-2.5,2.2-3.3,3.8-3.2L22.9,83.2z"/>
	<path class="st0" d="M16.9,77l0.5-1.5l5.5,1.8c-0.8-0.8-1.1-1.9-0.6-3.2c0.4-1,1-1.8,1.8-2c0.8-0.3,1.4-0.3,2.5,0.1l4.6,1.4
		l-0.6,1.7L26.5,74c-1.4-0.5-2.7-0.3-3.2,1.1c-0.5,1.5,0.5,2.5,1.9,3.1l4,1.3L28.7,81L16.9,77z"/>
	<path class="st0" d="M26.7,63.5l0.8-1.4l1.3,0.6c-0.6-0.9-0.8-2,0-3.3c0.5-1,1.3-1.5,2.2-1.7c0.8-0.1,1.4,0.1,2.4,0.6l4.2,2.3
		l-0.9,1.7l-3.8-2c-1.3-0.8-2.5-0.8-3.3,0.5c-0.8,1.4,0,2.7,1.3,3.3l3.7,2l-0.8,1.3L26.7,63.5z"/>
	<path class="st0" d="M35,57.1c-1.9-1.4-2.4-4-0.9-6s4.1-2.3,6-0.9c1.8,1.4,2.4,3.8,0.9,6C39.5,58.3,36.9,58.4,35,57.1z M39.2,51.5
		c-1.3-0.9-2.9-0.9-4,0.5c-1,1.3-0.5,2.9,0.6,4c1.1,1,2.9,0.9,4-0.5C40.9,54.1,40.5,52.4,39.2,51.5z"/>
	<path class="st0" d="M43.6,43.2l2.9,6.1l-0.8,0.8l-7.9-3.6l1.1-1.1l5.5,2.7l-2.5-5.5l1.1-1l5.5,2.7L46,38.8l1.1-1.1l3.4,7.9
		l-0.9,0.6L43.6,43.2z"/>
	<path class="st0" d="M58.5,27.7l2.2,9.9l-1,0.6l-9.9-8.7l1.5-0.9l7.5,6.8l-2.2-9.9l1-0.6l7.5,6.9l-2.2-9.9l1.5-0.9l2.5,13l-1,0.6
		L58.5,27.7z"/>
	<path class="st0" d="M75.6,21.8l2.8,7.6L77,30l-0.5-1.3c-0.1,1.1-1,2-2.2,2.4c-2.3,0.9-4.6-0.4-5.4-2.5c-0.8-2.2,0.1-4.6,2.4-5.5
		c1.1-0.4,2.4-0.3,3.2,0.5L74,22.3L75.6,21.8z M75.6,26.1c-0.5-1.4-2-2.3-3.6-1.8c-1.5,0.5-2,2.2-1.5,3.6s2,2.3,3.6,1.8
		C75.6,29.2,76.1,27.7,75.6,26.1z"/>
	<path class="st0" d="M85.1,27.8c-0.3,0.1-0.8,0.3-1.3,0.4c-1,0.3-2.5,0.4-3.2-2.2l-1-4l-1.4,0.4L78,21.2l1.4-0.4l-0.6-2.7l1.5-0.3
		l0.6,2.7l2-0.5l0.3,1.3l-2,0.5l1,3.6c0.4,1.5,0.9,1.5,1.7,1.4c0.3-0.1,0.8-0.3,1-0.3L85.1,27.8z"/>
	<path class="st0" d="M91.5,21.5c-0.3-1-1-1.7-2.4-1.4c-1.7,0.3-2.3,1.7-2.2,3.2c0.3,1.5,1.1,2.7,2.9,2.4c1.3-0.1,1.8-0.9,1.9-1.9
		l1.5-0.3c0,1.7-1,3.2-3.4,3.4c-2.7,0.4-4.3-1.5-4.6-3.7c-0.3-2.2,0.8-4.5,3.4-4.7c2.5-0.4,3.8,1,4.2,2.5L91.5,21.5z"/>
	<path class="st0" d="M95.6,13.9h1.5l0.1,5.9c0.5-1,1.4-1.7,2.8-1.7c1.1,0,1.9,0.4,2.4,1s0.6,1.3,0.6,2.4l0.1,4.7h-1.5l-0.1-4.3
		c0-1.5-0.6-2.7-2-2.5c-1.5,0-2.3,1.4-2.3,2.8l0.1,4.2h-1.5L95.6,13.9z"/>
	<path class="st0" d="M111.5,19l1.5,0.3l-0.3,1.4c0.6-0.9,1.8-1.4,3.1-1.1c1.1,0.3,1.8,0.8,2.2,1.5c0.4,0.6,0.4,1.4,0.1,2.5
		l-0.9,4.7l-1.5-0.3l0.8-4.2c0.3-1.5,0-2.7-1.5-2.9c-1.5-0.3-2.5,0.9-2.8,2.3l-0.8,4.1l-1.5-0.3L111.5,19z"/>
	<path class="st0" d="M120.2,24.9c0.8-2.2,2.9-3.6,5.4-2.7c2.4,0.8,3.4,3.2,2.7,5.4c-0.8,2.2-2.9,3.4-5.4,2.7
		C120.4,29.5,119.5,27,120.2,24.9z M126.9,27c0.5-1.5-0.1-3.1-1.7-3.6c-1.7-0.5-3.1,0.4-3.6,1.9s0.1,3.1,1.7,3.6
		C125,29.5,126.4,28.6,126.9,27z"/>
	<path class="st0" d="M136.1,28.7l-5,4.7l-0.9-0.5l0.9-8.7l1.5,0.8l-0.8,6l4.5-4.2l1.4,0.6l-0.8,6l4.5-4.2L143,30l-6.5,5.7l-0.9-0.5
		L136.1,28.7z"/>
	<path class="st0" d="M155.4,38l-8.7,5.2l-0.9-0.8l5.2-12.1l1.3,1.1l-4.1,9.3l8.7-5.2l0.9,0.8l-4.2,9.2l8.8-5.1l1.3,1.1L152.2,48
		l-0.9-0.8L155.4,38z"/>
	<path class="st0" d="M166.3,52.4l-6.4,5l-0.9-1.1l1.1-0.9c-1.1,0.3-2.3-0.3-3.1-1.3c-1.5-1.9-1-4.5,0.8-5.9s4.3-1.3,5.9,0.6
		c0.8,0.9,0.9,2.2,0.5,3.2l1.1-0.9L166.3,52.4z M162.2,53.7c1.3-1,1.5-2.7,0.5-4s-2.7-1.3-4-0.4c-1.3,1-1.5,2.5-0.5,4
		C159.3,54.7,161,54.7,162.2,53.7z"/>
	<path class="st0" d="M163.8,63.4c-0.3-0.3-0.5-0.6-0.8-1.1c-0.5-0.9-1.1-2.3,1-3.7l3.4-2.2l-0.8-1.3l1.1-0.6l0.8,1.3l2.3-1.4
		l0.8,1.3l-2.3,1.4l1.1,1.8l-1.1,0.6l-1.1-1.8l-3.2,1.9c-1.3,0.9-1.1,1.4-0.8,2c0.1,0.3,0.5,0.6,0.6,0.9L163.8,63.4z"/>
	<path class="st0" d="M171.5,67.4c0.9-0.5,1.3-1.4,0.6-2.8c-0.8-1.5-2.3-1.7-3.7-1c-1.4,0.6-2.2,1.9-1.4,3.6
		c0.6,1.1,1.4,1.4,2.4,1.3l0.6,1.4c-1.7,0.5-3.3,0-4.3-2.2c-1.1-2.4,0.1-4.6,2-5.5c1.9-1,4.5-0.6,5.6,1.8s0.3,4-1.1,4.8L171.5,67.4z
		"/>
	<path class="st0" d="M180.2,69l0.5,1.5l-5.5,1.9c1.1,0.1,2,0.9,2.4,2.2c0.4,1,0.3,1.9-0.3,2.7c-0.4,0.6-1,1-2.2,1.4l-4.6,1.5
		l-0.5-1.5l4.1-1.4c1.4-0.5,2.3-1.4,1.9-2.8c-0.5-1.5-2-1.8-3.3-1.3l-4,1.3l-0.5-1.5L180.2,69z"/>
	<path class="st0" d="M180.3,85.5l0.3,1.5l-1.4,0.1c1,0.4,1.8,1.3,2,2.7c0.1,1.1-0.1,2-0.8,2.5c-0.5,0.5-1.3,0.8-2.4,0.9l-4.7,0.6
		l-0.3-1.5l4.2-0.5c1.5-0.3,2.5-0.9,2.3-2.4c-0.3-1.5-1.7-2.2-3.1-1.9l-4.1,0.5l-0.3-1.5L180.3,85.5z"/>
	<path class="st0" d="M177.4,95.7c2.3,0,4.2,1.8,4.2,4.3s-2,4.2-4.3,4.2s-4.2-1.8-4.2-4.3C173.2,97.4,175.1,95.7,177.4,95.7z
		 M177.3,102.7c1.5,0,2.9-1,2.9-2.7s-1.3-2.7-2.8-2.8c-1.5,0-2.9,1-2.9,2.7S175.8,102.7,177.3,102.7z"/>
	<path class="st0" d="M178.8,112l-6-3.2l0.1-1l8.5-1.9l-0.3,1.7l-6,1.1l5.4,2.9l-0.3,1.5l-6,1.1l5.4,2.9l-0.3,1.7l-7.5-4.3l0.1-1
		L178.8,112z"/>
	<path class="st0" d="M176,133.2l-7.6-6.6l0.5-1.1l13.1,1.1l-0.6,1.5l-10.1-1l7.6,6.6l-0.5,1.1l-10.1-1.1l7.6,6.8l-0.6,1.5l-9.7-8.9
		l0.5-1.1L176,133.2z"/>
	<path class="st0" d="M165.7,148.1l-6.8-4.5l0.9-1.3l1.1,0.8c-0.5-1-0.4-2.3,0.3-3.3c1.4-2,4-2.4,5.9-1.1c1.9,1.3,2.7,3.7,1.3,5.9
		c-0.6,1-1.8,1.5-2.9,1.5l1.1,0.8L165.7,148.1z M163.1,144.7c1.3,0.9,2.9,0.6,4-0.6c0.9-1.4,0.4-2.9-0.9-3.8
		c-1.3-0.9-2.9-0.6-3.8,0.6C161.4,142.1,161.9,143.8,163.1,144.7z"/>
	<path class="st0" d="M154.5,149c0.1-0.3,0.5-0.8,0.8-1.1c0.6-0.8,1.8-1.8,3.8-0.1l3.1,2.5l1-1.1l1,0.9l-1,1.1l2,1.8l-1,1.1l-2-1.8
		l-1.4,1.7l-1-0.9l1.4-1.7l-2.8-2.4c-1.1-1-1.7-0.8-2.2-0.1c-0.3,0.3-0.5,0.6-0.6,0.9L154.5,149z"/>
	<path class="st0" d="M152.9,157.8c0.8,0.6,1.8,0.8,2.8-0.3c1.1-1.1,0.9-2.7-0.3-3.8c-1-1.1-2.5-1.5-3.8-0.3c-1,0.9-0.9,1.8-0.5,2.7
		l-1.1,1c-1-1.4-1-3.2,0.6-4.8c1.9-1.8,4.3-1.4,5.9,0.3c1.5,1.5,1.9,4.1,0.1,5.9c-1.9,1.8-3.7,1.4-5,0.4L152.9,157.8z"/>
	<path class="st0" d="M154.2,166.5l-1.3,0.9l-3.4-4.7c0.3,1-0.3,2.2-1.3,3.1c-0.9,0.6-1.8,0.9-2.6,0.6c-0.8-0.3-1.3-0.6-2-1.7
		l-2.8-3.8l1.3-0.9l2.5,3.4c0.9,1.1,2,1.8,3.2,0.9c1.3-0.9,1-2.4,0.1-3.6l-2.5-3.3l1.3-0.9L154.2,166.5z"/>
	<path class="st0" d="M138.5,171.7l-1.4,0.6l-0.6-1.3c0,1.1-0.6,2.2-1.9,2.7c-1,0.5-1.9,0.5-2.7,0.1c-0.6-0.4-1.1-0.9-1.7-1.9
		l-2-4.3l1.4-0.6l1.9,3.8c0.6,1.4,1.7,2.2,3.1,1.5c1.4-0.6,1.5-2.2,0.9-3.4l-1.8-3.8l1.4-0.6L138.5,171.7z"/>
	<path class="st0" d="M128,172.2c0.8,2.2-0.3,4.6-2.7,5.4c-2.4,0.8-4.7-0.5-5.4-2.7c-0.8-2.2,0.3-4.6,2.8-5.4
		C125,168.6,127.2,170,128,172.2z M121.3,174.4c0.5,1.5,1.9,2.4,3.4,1.9c1.5-0.5,2.2-2,1.7-3.6c-0.5-1.5-1.9-2.4-3.4-1.9
		C121.5,171.3,120.8,172.8,121.3,174.4z"/>
	<path class="st0" d="M112.9,178.6l1.1-6.6l1-0.1l4.5,7.5l-1.7,0.3l-2.9-5.4l-1,6l-1.5,0.3l-2.9-5.4l-1,6l-1.7,0.3l1.8-8.5l1-0.1
		L112.9,178.6z"/>
</g>
</svg>
